<svg width="62" height="20" viewBox="0 0 62 20" fill="none" xmlns="http://www.w3.org/2000/svg">
<g clip-path="url(#clip0_17_3809)">
<path d="M20.323 0.0380707H0.593262V19.7678H20.323V0.0380707Z" fill="white"/>
<path d="M16.0498 9.71542L15.6092 11.3596H7.00703L4.66577 2.62424H6.3691L8.26809 9.71542H16.0498Z" fill="#AD7E5C"/>
<path d="M15.3445 12.3461L14.9038 13.9903H5.1064L4.66577 12.3461H15.3445Z" fill="#518581"/>
<path d="M14.6392 14.9767L14.1986 16.6208H7.44771L7.00708 14.9767H14.6392Z" fill="#A6D8D1"/>
</g>
<path d="M25.96 5.7766H27.4932V12.8229H31.0897V14.1758H25.96V5.7766Z" fill="#151411"/>
<path d="M33.8177 14.3111C33.1713 14.3111 32.6564 14.1533 32.2731 13.8376C31.8973 13.5219 31.7094 13.0935 31.7094 12.5523C31.7094 12.0337 31.886 11.6053 32.2393 11.2671C32.5925 10.9289 33.1224 10.7034 33.8289 10.5907L35.6553 10.2975V10.0946C35.6553 9.82401 35.5501 9.60229 35.3397 9.42942C35.1367 9.25655 34.8662 9.17011 34.5279 9.17011C34.2123 9.17011 33.9304 9.25655 33.6824 9.42942C33.4419 9.59477 33.2652 9.8165 33.1525 10.0946L31.9462 9.50834C32.1266 9.02731 32.4573 8.64023 32.9383 8.3471C33.4193 8.05398 33.968 7.90741 34.5843 7.90741C35.0804 7.90741 35.5201 8.00136 35.9034 8.18927C36.2942 8.36965 36.5949 8.62896 36.8053 8.96718C37.0233 9.29789 37.1323 9.67369 37.1323 10.0946V14.1758H35.7343V13.5219C35.2532 14.048 34.6144 14.3111 33.8177 14.3111ZM33.2427 12.496C33.2427 12.7064 33.3216 12.8755 33.4794 13.0033C33.6373 13.1236 33.8402 13.1837 34.0882 13.1837C34.5467 13.1837 34.9225 13.0409 35.2157 12.7553C35.5088 12.4622 35.6553 12.1014 35.6553 11.673V11.4249L34.1108 11.6842C33.8177 11.7444 33.5997 11.8421 33.4569 11.9774C33.3141 12.1051 33.2427 12.278 33.2427 12.496Z" fill="#151411"/>
<path d="M38.4973 5.64131H39.9742V14.1758H38.4973V5.64131Z" fill="#151411"/>
<path d="M43.1981 14.3111C42.5517 14.3111 42.0369 14.1533 41.6535 13.8376C41.2777 13.5219 41.0898 13.0935 41.0898 12.5523C41.0898 12.0337 41.2665 11.6053 41.6197 11.2671C41.973 10.9289 42.5028 10.7034 43.2094 10.5907L45.0358 10.2975V10.0946C45.0358 9.82401 44.9305 9.60229 44.7201 9.42942C44.5172 9.25655 44.2466 9.17011 43.9084 9.17011C43.5927 9.17011 43.3108 9.25655 43.0628 9.42942C42.8223 9.59477 42.6457 9.8165 42.5329 10.0946L41.3266 9.50834C41.507 9.02731 41.8377 8.64023 42.3187 8.3471C42.7997 8.05398 43.3484 7.90741 43.9647 7.90741C44.4608 7.90741 44.9005 8.00136 45.2838 8.18927C45.6746 8.36965 45.9753 8.62896 46.1857 8.96718C46.4037 9.29789 46.5127 9.67369 46.5127 10.0946V14.1758H45.1147V13.5219C44.6337 14.048 43.9948 14.3111 43.1981 14.3111ZM42.6231 12.496C42.6231 12.7064 42.702 12.8755 42.8599 13.0033C43.0177 13.1236 43.2206 13.1837 43.4687 13.1837C43.9271 13.1837 44.3029 13.0409 44.5961 12.7553C44.8892 12.4622 45.0358 12.1014 45.0358 11.673V11.4249L43.4912 11.6842C43.1981 11.7444 42.9801 11.8421 42.8373 11.9774C42.6945 12.1051 42.6231 12.278 42.6231 12.496Z" fill="#151411"/>
<path d="M50.1776 14.2998C49.5613 14.2998 49.0164 14.1533 48.5429 13.8601C48.0769 13.567 47.7462 13.1649 47.5508 12.6538L48.6444 12.0901C48.8097 12.4208 49.0277 12.6801 49.2983 12.868C49.5764 13.0484 49.8808 13.1386 50.2115 13.1386C50.4971 13.1386 50.7188 13.0822 50.8766 12.9695C51.042 12.8492 51.1247 12.6876 51.1247 12.4847C51.1247 12.3118 51.057 12.169 50.9217 12.0563C50.7864 11.936 50.6098 11.8571 50.3919 11.8195L49.3885 11.6504C48.8698 11.5151 48.4677 11.2859 48.1821 10.9627C47.904 10.632 47.765 10.2449 47.765 9.80146C47.765 9.43318 47.8627 9.10623 48.0581 8.82062C48.2535 8.52749 48.5241 8.30201 48.8698 8.14417C49.2231 7.98633 49.6215 7.90741 50.0649 7.90741C50.6286 7.90741 51.1247 8.0427 51.5531 8.31328C51.9815 8.57634 52.2934 8.94463 52.4888 9.41814L51.3953 9.98185C51.275 9.71879 51.0909 9.50834 50.8428 9.3505C50.5948 9.19266 50.3205 9.11374 50.0198 9.11374C49.7718 9.11374 49.5726 9.17011 49.4223 9.28285C49.2795 9.3956 49.2081 9.54216 49.2081 9.72254C49.2081 10.0533 49.4561 10.275 49.9522 10.3877L50.933 10.5681C51.4516 10.7109 51.8537 10.9439 52.1393 11.2671C52.425 11.5903 52.5678 11.9736 52.5678 12.4171C52.5678 12.7853 52.4663 13.1123 52.2634 13.3979C52.0679 13.6835 51.7898 13.9052 51.4291 14.0631C51.0683 14.2209 50.6512 14.2998 50.1776 14.2998Z" fill="#151411"/>
<path d="M53.6689 8.0427H55.1458V14.1758H53.6689V8.0427ZM53.5562 6.35158C53.5562 6.08101 53.6313 5.87055 53.7817 5.72023C53.932 5.56991 54.1387 5.49475 54.4017 5.49475C54.6723 5.49475 54.8828 5.56991 55.0331 5.72023C55.1834 5.87055 55.2586 6.08101 55.2586 6.35158C55.2586 6.61465 55.1834 6.82134 55.0331 6.97166C54.8903 7.12198 54.6798 7.19714 54.4017 7.19714C54.1387 7.19714 53.932 7.12198 53.7817 6.97166C53.6313 6.82134 53.5562 6.61465 53.5562 6.35158Z" fill="#151411"/>
<path d="M58.3697 14.3111C57.7233 14.3111 57.2085 14.1533 56.8251 13.8376C56.4493 13.5219 56.2614 13.0935 56.2614 12.5523C56.2614 12.0337 56.4381 11.6053 56.7913 11.2671C57.1446 10.9289 57.6745 10.7034 58.381 10.5907L60.2074 10.2975V10.0946C60.2074 9.82401 60.1022 9.60229 59.8917 9.42942C59.6888 9.25655 59.4182 9.17011 59.08 9.17011C58.7643 9.17011 58.4824 9.25655 58.2344 9.42942C57.9939 9.59477 57.8173 9.8165 57.7045 10.0946L56.4982 9.50834C56.6786 9.02731 57.0093 8.64023 57.4903 8.3471C57.9714 8.05398 58.52 7.90741 59.1363 7.90741C59.6324 7.90741 60.0721 8.00136 60.4554 8.18927C60.8463 8.36965 61.1469 8.62896 61.3573 8.96718C61.5753 9.29789 61.6843 9.67369 61.6843 10.0946V14.1758H60.2863V13.5219C59.8053 14.048 59.1664 14.3111 58.3697 14.3111ZM57.7947 12.496C57.7947 12.7064 57.8736 12.8755 58.0315 13.0033C58.1893 13.1236 58.3923 13.1837 58.6403 13.1837C59.0988 13.1837 59.4746 13.0409 59.7677 12.7553C60.0608 12.4622 60.2074 12.1014 60.2074 11.673V11.4249L58.6628 11.6842C58.3697 11.7444 58.1517 11.8421 58.0089 11.9774C57.8661 12.1051 57.7947 12.278 57.7947 12.496Z" fill="#151411"/>
<defs>
<clipPath id="clip0_17_3809">
<rect width="19.7297" height="19.7297" fill="white" transform="translate(0.593262 0.0380707)"/>
</clipPath>
</defs>
</svg>
