<svg width="154" height="154" viewBox="0 0 154 154" fill="none" xmlns="http://www.w3.org/2000/svg">
<path d="M83.1631 115.179C86.9498 114.776 92.0363 114.121 95.6567 113.091M95.6567 113.091C96.0739 112.972 94.2983 110.244 94.2058 110.125C92.1796 107.516 89.8742 105.252 87.4751 102.996M95.6567 113.091C75.099 110.715 60.2617 95.9633 59.924 81.2135C59.8905 79.7516 59.8556 78.1604 59.9625 76.573M59.9625 76.573C60.1326 74.0451 60.6623 71.5267 62.1298 69.5552C63.4843 67.7358 66.0152 65.9362 68.3694 66.2345C72.7673 66.792 74.0353 72.5333 71.0489 75.5889C68.4247 78.2741 62.9148 78.8271 59.9625 76.573ZM59.9625 76.573C59.9002 76.5255 59.8391 76.4767 59.7791 76.4266C45.3096 64.346 53.6242 43.8024 67.1994 36.4787" stroke="#A6D8D2" stroke-width="2.34877" stroke-miterlimit="1.5" stroke-linecap="round" stroke-linejoin="round"/>
</svg>
